<mxfile host="65bd71144e">
    <diagram id="crLs7SP93K8507Sr5h4y" name="Page-1">
        <mxGraphModel dx="633" dy="459" grid="1" gridSize="10" guides="1" tooltips="1" connect="1" arrows="1" fold="1" page="1" pageScale="1" pageWidth="1100" pageHeight="850" math="0" shadow="0">
            <root>
                <mxCell id="0"/>
                <mxCell id="1" parent="0"/>
                <mxCell id="2" value="&lt;font color=&quot;#4063d8&quot; style=&quot;font-size: 24px;&quot;&gt;A&lt;/font&gt;&lt;font style=&quot;font-size: 24px;&quot;&gt;C&lt;/font&gt;&lt;font style=&quot;font-size: 24px;&quot;&gt;G&lt;/font&gt;&lt;font style=&quot;font-size: 24px;&quot;&gt;T&lt;/font&gt;...&lt;font color=&quot;#4063d8&quot; style=&quot;font-size: 24px;&quot;&gt;1&lt;/font&gt;000&lt;br style=&quot;font-size: 24px;&quot;&gt;&lt;font style=&quot;font-size: 24px;&quot;&gt;A&lt;/font&gt;&lt;font color=&quot;#389826&quot; style=&quot;font-size: 24px;&quot;&gt;C&lt;/font&gt;&lt;font style=&quot;font-size: 24px;&quot;&gt;G&lt;/font&gt;&lt;font style=&quot;font-size: 24px;&quot;&gt;T&lt;/font&gt;...0&lt;font color=&quot;#389826&quot; style=&quot;font-size: 24px;&quot;&gt;1&lt;/font&gt;00&lt;br style=&quot;font-size: 24px;&quot;&gt;&lt;font style=&quot;font-size: 24px;&quot;&gt;A&lt;/font&gt;&lt;font style=&quot;font-size: 24px;&quot;&gt;C&lt;/font&gt;&lt;font color=&quot;#9558b2&quot; style=&quot;font-size: 24px;&quot;&gt;G&lt;/font&gt;&lt;font style=&quot;font-size: 24px;&quot;&gt;T&lt;/font&gt;...00&lt;font color=&quot;#9558b2&quot; style=&quot;font-size: 24px;&quot;&gt;1&lt;/font&gt;0&lt;br style=&quot;font-size: 24px;&quot;&gt;&lt;font style=&quot;font-size: 24px;&quot;&gt;A&lt;/font&gt;&lt;font style=&quot;font-size: 24px;&quot;&gt;C&lt;/font&gt;&lt;font style=&quot;font-size: 24px;&quot;&gt;G&lt;/font&gt;&lt;font color=&quot;#cb3c33&quot; style=&quot;font-size: 24px;&quot;&gt;T&lt;/font&gt;...000&lt;font color=&quot;#cb3c33&quot; style=&quot;font-size: 24px;&quot;&gt;1&lt;/font&gt;" style="text;html=1;align=center;verticalAlign=middle;resizable=0;points=[];autosize=1;strokeColor=none;fillColor=none;rotation=0;fontSize=24;rounded=0;glass=0;horizontal=1;spacingTop=5;spacing=4;spacingLeft=0;labelBackgroundColor=none;labelBorderColor=none;" vertex="1" parent="1">
                    <mxGeometry x="231" y="135" width="160" height="140" as="geometry"/>
                </mxCell>
            </root>
        </mxGraphModel>
    </diagram>
</mxfile>